<?xml version="1.0" encoding="utf-8"?>
<!-- Generator: Adobe Illustrator 23.0.4, SVG Export Plug-In . SVG Version: 6.00 Build 0)  -->
<svg version="1.1" id="Camada_2" xmlns="http://www.w3.org/2000/svg" xmlns:xlink="http://www.w3.org/1999/xlink" x="0px" y="0px"
	 viewBox="0 0 283.46 283.46" style="enable-background:new 0 0 283.46 283.46;" xml:space="preserve">
<style type="text/css">
	.st0{fill:#FFFFFF;}
	.st1{fill:#ECB31F;}
</style>
<g>
	<g>
		<g>
			<path d="M141.74,20.4c-18.87,0-34.17,15.3-34.17,34.16c0,18.87,15.3,34.17,34.17,34.17c18.86,0,34.16-15.3,34.16-34.17
				C175.9,35.7,160.6,20.4,141.74,20.4z M141.74,83.74c-16.12,0-29.18-13.07-29.18-29.18c0-16.11,13.07-29.17,29.18-29.17
				c16.11,0,29.17,13.07,29.17,29.17C170.91,70.68,157.84,83.74,141.74,83.74z"/>
			<path class="st0" d="M170.91,54.56c0,16.12-13.07,29.18-29.17,29.18c-16.12,0-29.18-13.07-29.18-29.18
				c0-16.11,13.07-29.17,29.18-29.17C157.84,25.39,170.91,38.45,170.91,54.56z"/>
		</g>
		<g>
			<path d="M141.74,107.57c-18.87,0-34.17,15.3-34.17,34.16c0,18.87,15.3,34.17,34.17,34.17c18.86,0,34.16-15.3,34.16-34.17
				C175.9,122.87,160.6,107.57,141.74,107.57z M141.74,170.91c-16.12,0-29.18-13.07-29.18-29.18c0-16.11,13.07-29.17,29.18-29.17
				c16.11,0,29.17,13.07,29.17,29.17C170.91,157.84,157.84,170.91,141.74,170.91z"/>
			<path class="st1" d="M170.91,141.73c0,16.12-13.07,29.18-29.17,29.18c-16.12,0-29.18-13.07-29.18-29.18
				c0-16.11,13.07-29.17,29.18-29.17C157.84,112.55,170.91,125.62,170.91,141.73z"/>
		</g>
		<g>
			<path d="M141.74,194.73c-18.87,0-34.17,15.3-34.17,34.16c0,18.87,15.3,34.17,34.17,34.17c18.86,0,34.16-15.3,34.16-34.17
				C175.9,210.03,160.6,194.73,141.74,194.73z M141.74,258.08c-16.12,0-29.18-13.07-29.18-29.18c0-16.11,13.07-29.17,29.18-29.17
				c16.11,0,29.17,13.07,29.17,29.17C170.91,245.01,157.84,258.08,141.74,258.08z"/>
			<path class="st0" d="M170.91,228.89c0,16.12-13.07,29.18-29.17,29.18c-16.12,0-29.18-13.07-29.18-29.18
				c0-16.11,13.07-29.17,29.18-29.17C157.84,199.72,170.91,212.79,170.91,228.89z"/>
		</g>
	</g>
	<g>
		<polygon points="269.29,142.45 196.97,214.77 164.87,182.67 205.1,142.45 163.43,100.79 195.53,68.69 		"/>
		<polygon points="14.17,141.01 86.49,68.69 118.59,100.79 78.36,141.01 120.03,182.67 87.93,214.77 		"/>
	</g>
</g>
</svg>
